# xmcd
#
# Track frame offsets:
# 150
# 4822
# 24260
# 39582
# 44095
# 59292
# 63332
# 74955
# 88885
# 91702
# 105315
# 109017
# 123370
# 139382
# 143707
# 157962
# 162535
# 176955
# 198767
# 203080
# 218522
# 223147
# 238402
# 257752
# 261920
# 279422
# 281115
#
# Disc length: 3964 seconds
#
# Revision: 0
# Processed by: cddbd v1.5.1PL0 Copyright (c) Steve Scherf et al.
# Submitted via: MacMP3 Pro 5.0 (http://mp3.act2.co.jp/)
#
DISCID=9f0f7a1b
DTITLE=ÍOEÂ•ÛTÈ¸ÚY - ÛTÈ¸ÚYÁ∞Ë(TM)«?«™«°«?
DYEAR=1900
DGENRE=
TTITLE0=…i…Â≈[…V…·…Ï
TTITLE1=„?Áø«√Û^«√ÔÆÂÕ
TTITLE2=Ò»«√«fl«∆«À‚‘«¢
TTITLE3=…i…Â≈[…V…·…Ï
TTITLE4=Ò»Ò?« Á∞Ò»«?ÛLÏ‘«ß
TTITLE5=…i…Â≈[…V…·…Ï
TTITLE6=‚•«’Î"«°«?«»«?
TTITLE7=„?«°«?‚†Èø
TTITLE8=…i…Â≈[…V…·…Ï
TTITLE9=ÈK«--«?…i…C…t
TTITLE10=…i…Â≈[…V…·…Ï
TTITLE11=Á`Ì®Û<Ì®Ô†«ÕÌ®
TTITLE12=…u…‚…Ï…f≈[…O…‚…X
TTITLE13=…i…Â≈[…V…·…Ï
TTITLE14=Í'«¢…n…Ï…J…`
TTITLE15=…i…Â≈[…V…·…Ï
TTITLE16=Í‡«ªÔ†«Õ
TTITLE17=Á∞Ë(TM)«?«™«°«?
TTITLE18=…i…Â≈[…V…·…Ï
TTITLE19=Ô†«Õ«√Ò»ÒÊ«ÿ
TTITLE20=…i…Â≈[…V…·…Ï
TTITLE21=Ò»Ò?«√Ô¡Ë”
TTITLE22=Òk«√Û<sum>Íl
TTITLE23=…i…Â≈[…V…·…Ï
TTITLE24=Ï“Íl«√Í¢‰E
TTITLE25=…i…Â≈[…V…·…Ï
TTITLE26=Ìj«√Îf‰¡
EXTD=
EXTT0=
EXTT1=
EXTT2=
EXTT3=
EXTT4=
EXTT5=
EXTT6=
EXTT7=
EXTT8=
EXTT9=
EXTT10=
EXTT11=
EXTT12=
EXTT13=
EXTT14=
EXTT15=
EXTT16=
EXTT17=
EXTT18=
EXTT19=
EXTT20=
EXTT21=
EXTT22=
EXTT23=
EXTT24=
EXTT25=
EXTT26=
PLAYORDER=
